<mxfile host="app.diagrams.net" modified="2023-12-02T14:17:29.600Z" agent="Mozilla/5.0 (X11; Linux x86_64) AppleWebKit/537.36 (KHTML, like Gecko) Chrome/119.0.0.0 Safari/537.36" etag="lTWpYITl1X2JRcjcOpiN" version="22.1.5" type="device">
  <diagram name="Page-1" id="16e2658f-23c8-b752-8be9-c03fbebb8bbe">
    <mxGraphModel dx="177" dy="88" grid="0" gridSize="10" guides="1" tooltips="1" connect="1" arrows="1" fold="1" page="1" pageScale="1" pageWidth="1100" pageHeight="850" background="none" math="0" shadow="0">
      <root>
        <mxCell id="0" />
        <mxCell id="1" parent="0" />
        <mxCell id="DSGTsGF2kFHJG2e4cULi-1" value="" style="pointerEvents=1;verticalLabelPosition=bottom;shadow=0;dashed=0;align=center;html=1;verticalAlign=top;shape=mxgraph.electrical.resistors.resistor_1;" vertex="1" parent="1">
          <mxGeometry x="300" y="170" width="100" height="20" as="geometry" />
        </mxCell>
        <mxCell id="DSGTsGF2kFHJG2e4cULi-8" style="edgeStyle=orthogonalEdgeStyle;rounded=0;orthogonalLoop=1;jettySize=auto;html=1;exitX=1;exitY=0.5;exitDx=0;exitDy=0;exitPerimeter=0;endArrow=none;endFill=0;" edge="1" parent="1" source="DSGTsGF2kFHJG2e4cULi-2">
          <mxGeometry relative="1" as="geometry">
            <mxPoint x="490" y="470" as="targetPoint" />
          </mxGeometry>
        </mxCell>
        <mxCell id="DSGTsGF2kFHJG2e4cULi-2" value="" style="pointerEvents=1;verticalLabelPosition=bottom;shadow=0;dashed=0;align=center;html=1;verticalAlign=top;shape=mxgraph.electrical.capacitors.capacitor_1;rotation=90;" vertex="1" parent="1">
          <mxGeometry x="440" y="290" width="100" height="60" as="geometry" />
        </mxCell>
        <mxCell id="DSGTsGF2kFHJG2e4cULi-5" style="edgeStyle=orthogonalEdgeStyle;rounded=0;orthogonalLoop=1;jettySize=auto;html=1;exitX=0.58;exitY=0.135;exitDx=0;exitDy=0;exitPerimeter=0;entryX=0;entryY=0.8;entryDx=0;entryDy=0;endArrow=none;endFill=0;" edge="1" parent="1" source="DSGTsGF2kFHJG2e4cULi-3" target="DSGTsGF2kFHJG2e4cULi-4">
          <mxGeometry relative="1" as="geometry" />
        </mxCell>
        <mxCell id="DSGTsGF2kFHJG2e4cULi-19" style="edgeStyle=orthogonalEdgeStyle;rounded=0;orthogonalLoop=1;jettySize=auto;html=1;exitX=0.58;exitY=0.935;exitDx=0;exitDy=0;exitPerimeter=0;endArrow=none;endFill=0;" edge="1" parent="1" source="DSGTsGF2kFHJG2e4cULi-3">
          <mxGeometry relative="1" as="geometry">
            <mxPoint x="270.57142857142867" y="470" as="targetPoint" />
          </mxGeometry>
        </mxCell>
        <mxCell id="DSGTsGF2kFHJG2e4cULi-3" value="" style="pointerEvents=1;verticalLabelPosition=bottom;shadow=0;dashed=0;align=center;html=1;verticalAlign=top;shape=mxgraph.electrical.signal_sources.dc_source_1;" vertex="1" parent="1">
          <mxGeometry x="230" y="320" width="70" height="75" as="geometry" />
        </mxCell>
        <mxCell id="DSGTsGF2kFHJG2e4cULi-4" value="" style="html=1;shape=mxgraph.electrical.electro-mechanical.singleSwitch;aspect=fixed;elSwitchState=off;rotation=-90;" vertex="1" parent="1">
          <mxGeometry x="227.5" y="250" width="75" height="20" as="geometry" />
        </mxCell>
        <mxCell id="DSGTsGF2kFHJG2e4cULi-6" style="edgeStyle=orthogonalEdgeStyle;rounded=0;orthogonalLoop=1;jettySize=auto;html=1;exitX=1;exitY=0.8;exitDx=0;exitDy=0;entryX=0;entryY=0.5;entryDx=0;entryDy=0;entryPerimeter=0;endArrow=none;endFill=0;" edge="1" parent="1" source="DSGTsGF2kFHJG2e4cULi-4" target="DSGTsGF2kFHJG2e4cULi-1">
          <mxGeometry relative="1" as="geometry">
            <Array as="points">
              <mxPoint x="271" y="180" />
            </Array>
          </mxGeometry>
        </mxCell>
        <mxCell id="DSGTsGF2kFHJG2e4cULi-7" style="edgeStyle=orthogonalEdgeStyle;rounded=0;orthogonalLoop=1;jettySize=auto;html=1;exitX=1;exitY=0.5;exitDx=0;exitDy=0;exitPerimeter=0;entryX=0;entryY=0.5;entryDx=0;entryDy=0;entryPerimeter=0;endArrow=none;endFill=0;" edge="1" parent="1" source="DSGTsGF2kFHJG2e4cULi-1" target="DSGTsGF2kFHJG2e4cULi-2">
          <mxGeometry relative="1" as="geometry" />
        </mxCell>
        <mxCell id="DSGTsGF2kFHJG2e4cULi-10" value="" style="endArrow=none;html=1;rounded=0;" edge="1" parent="1">
          <mxGeometry width="50" height="50" relative="1" as="geometry">
            <mxPoint x="271" y="469" as="sourcePoint" />
            <mxPoint x="490" y="470" as="targetPoint" />
          </mxGeometry>
        </mxCell>
        <mxCell id="DSGTsGF2kFHJG2e4cULi-12" value="" style="endArrow=none;html=1;rounded=0;" edge="1" parent="1">
          <mxGeometry width="50" height="50" relative="1" as="geometry">
            <mxPoint x="250" y="350" as="sourcePoint" />
            <mxPoint x="290" y="350" as="targetPoint" />
          </mxGeometry>
        </mxCell>
        <mxCell id="DSGTsGF2kFHJG2e4cULi-13" value="" style="endArrow=none;html=1;rounded=0;" edge="1" parent="1">
          <mxGeometry width="50" height="50" relative="1" as="geometry">
            <mxPoint x="250" y="370" as="sourcePoint" />
            <mxPoint x="290" y="370" as="targetPoint" />
          </mxGeometry>
        </mxCell>
        <mxCell id="DSGTsGF2kFHJG2e4cULi-14" value="&lt;font style=&quot;font-size: 20px;&quot;&gt;R&lt;/font&gt;" style="text;html=1;strokeColor=none;fillColor=none;align=center;verticalAlign=middle;whiteSpace=wrap;rounded=0;" vertex="1" parent="1">
          <mxGeometry x="316" y="140" width="60" height="30" as="geometry" />
        </mxCell>
        <mxCell id="DSGTsGF2kFHJG2e4cULi-15" value="&lt;font style=&quot;font-size: 20px;&quot;&gt;C&lt;/font&gt;" style="text;html=1;strokeColor=none;fillColor=none;align=center;verticalAlign=middle;whiteSpace=wrap;rounded=0;" vertex="1" parent="1">
          <mxGeometry x="480" y="280" width="60" height="30" as="geometry" />
        </mxCell>
        <mxCell id="DSGTsGF2kFHJG2e4cULi-16" value="" style="endArrow=classic;html=1;rounded=0;" edge="1" parent="1">
          <mxGeometry width="50" height="50" relative="1" as="geometry">
            <mxPoint x="200" y="322.5" as="sourcePoint" />
            <mxPoint x="200" y="392.5" as="targetPoint" />
          </mxGeometry>
        </mxCell>
        <mxCell id="DSGTsGF2kFHJG2e4cULi-17" value="U" style="text;html=1;strokeColor=none;fillColor=none;align=center;verticalAlign=middle;whiteSpace=wrap;rounded=0;fontSize=20;" vertex="1" parent="1">
          <mxGeometry x="150" y="340" width="60" height="30" as="geometry" />
        </mxCell>
        <mxCell id="DSGTsGF2kFHJG2e4cULi-18" value="&lt;font style=&quot;font-size: 20px;&quot;&gt;S&lt;/font&gt;" style="text;html=1;strokeColor=none;fillColor=none;align=center;verticalAlign=middle;whiteSpace=wrap;rounded=0;fontSize=20;" vertex="1" parent="1">
          <mxGeometry x="200" y="240" width="60" height="30" as="geometry" />
        </mxCell>
        <mxCell id="DSGTsGF2kFHJG2e4cULi-20" value="&lt;font style=&quot;font-size: 20px;&quot;&gt;u&lt;/font&gt;" style="text;html=1;strokeColor=none;fillColor=none;align=center;verticalAlign=middle;whiteSpace=wrap;rounded=0;" vertex="1" parent="1">
          <mxGeometry x="529" y="280" width="60" height="30" as="geometry" />
        </mxCell>
        <mxCell id="DSGTsGF2kFHJG2e4cULi-21" value="C" style="text;html=1;strokeColor=none;fillColor=none;align=center;verticalAlign=middle;whiteSpace=wrap;rounded=0;" vertex="1" parent="1">
          <mxGeometry x="539" y="290" width="60" height="30" as="geometry" />
        </mxCell>
        <mxCell id="DSGTsGF2kFHJG2e4cULi-22" value="" style="endArrow=classic;html=1;rounded=0;" edge="1" parent="1">
          <mxGeometry width="50" height="50" relative="1" as="geometry">
            <mxPoint x="540" y="275" as="sourcePoint" />
            <mxPoint x="540" y="345" as="targetPoint" />
          </mxGeometry>
        </mxCell>
        <mxCell id="DSGTsGF2kFHJG2e4cULi-23" value="t = 0 s" style="text;html=1;strokeColor=none;fillColor=none;align=center;verticalAlign=middle;whiteSpace=wrap;rounded=0;" vertex="1" parent="1">
          <mxGeometry x="220" y="201" width="60" height="30" as="geometry" />
        </mxCell>
      </root>
    </mxGraphModel>
  </diagram>
</mxfile>
